# File created by Blade
# Date/Time:  Tue Sep 30 19:06:56 2014
#---------------------------------------------------------
:version 1.10
:name HOM
:units
  mass 1.0
  length 1.000000
  angle deg
:documentation
     Acclaim Skeleton File
:root
   axis xyz
   order TX TY TZ RX RY RZ
   position 0.000000 0.000000 0.000000
   orientation 0 0 0
:bonedata
   begin
      id 1
      name Spine_dum
      direction 0.000000 1.000000 0.000000
      length 7.508948
      axis 0.0 0.0 0.0 xyz
   end
   begin
      id 2
      name LeftUpLeg_dum
      direction 1.000000 0.000000 0.000000
      length 3.000560
      axis 0.0 0.0 0.0 xyz
   end
   begin
      id 3
      name RightUpLeg_dum
      direction -1.000000 0.000000 0.000000
      length 3.000560
      axis 0.0 0.0 0.0 xyz
   end
   begin
      id 4
      name Spine
      direction 0.000000 1.000000 0.000000
      length 0.000000
      axis 0.0 0.0 0.0 xyz
      dof rx ry rz
   end
   begin
      id 5
      name Spine_dum1
      direction 0.000000 1.000000 0.000000
      length 13.861154
      axis 0.0 0.0 0.0 xyz
   end
   begin
      id 6
      name Spine_dum2
      direction 0.000000 1.000000 0.000000
      length 8.204781
      axis 0.0 0.0 0.0 xyz
   end
   begin
      id 7
      name Spine_dum3
      direction 0.000000 1.000000 0.000000
      length 8.204781
      axis 0.0 0.0 0.0 xyz
   end
   begin
      id 8
      name Head
      direction 0.000000 1.000000 0.000000
      length 4.527550
      axis 0.0 0.0 0.0 xyz
      dof rx ry rz
   end
   begin
      id 9
      name LeftShoulder
      direction 1.000000 0.000000 0.000000
      length 6.635956
      axis 0.0 0.0 -90.0 xyz
      dof rx ry rz
   end
   begin
      id 10
      name LeftArm
      direction 1.000000 0.000000 0.000000
      length 10.274218
      axis 0.0 0.0 -90.0 xyz
      dof rx ry rz
   end
   begin
      id 11
      name LeftForeArm
      direction 1.000000 0.000000 0.000000
      length 8.522147
      axis 0.0 0.0 -90.0 xyz
      dof ry rz rx
   end
   begin
      id 12
      name LeftHand
      direction 0.000000 0.000000 0.000000
      length 0.000000
      axis 0.0 0.0 -90.0 xyz
      dof rx ry rz
   end
   begin
      id 13
      name LeftHand_dum1
      direction 0.000000 0.000000 0.000000
      length 0.000000
      axis 0.0 0.0 -90.0 xyz
   end
   begin
      id 14
      name LeftHand_dum2
      direction 1.000000 0.000000 0.000000
      length 3.937000
      axis 0.0 0.0 -90.0 xyz
   end
   begin
      id 15
      name LeftHandThumb1
      direction 0.000000 0.000000 1.000000
      length 3.937000
      axis 0.0 0.0 -90.0 xyz
      dof rx rz ry
   end
   begin
      id 16
      name RightShoulder
      direction -1.000000 0.000000 0.000000
      length 6.635956
      axis 0.0 0.0 90.0 xyz
      dof rx ry rz
   end
   begin
      id 17
      name RightArm
      direction -1.000000 0.000000 0.000000
      length 10.274218
      axis 0.0 0.0 90.0 xyz
      dof rx ry rz
   end
   begin
      id 18
      name RightForeArm
      direction -1.000000 0.000000 0.000000
      length 8.522147
      axis 0.0 0.0 90.0 xyz
      dof ry rz rx
   end
   begin
      id 19
      name RightHand
      direction 0.000000 0.000000 0.000000
      length 0.000000
      axis 0.0 0.0 90.0 xyz
      dof rx ry rz
   end
   begin
      id 20
      name RightHand_dum1
      direction 0.000000 0.000000 0.000000
      length 0.000000
      axis 0.0 0.0 90.0 xyz
   end
   begin
      id 21
      name RightHand_dum2
      direction -1.000000 0.000000 0.000000
      length 3.937000
      axis 0.0 0.0 90.0 xyz
   end
   begin
      id 22
      name RightHandThumb1
      direction 0.000000 0.000000 1.000000
      length 3.937000
      axis 0.0 0.0 90.0 xyz
      dof rx rz ry
   end
   begin
      id 23
      name LeftUpLeg
      direction 0.000000 -1.000000 0.000000
      length 16.490845
      axis 0.0 0.0 0.0 xyz
      dof rx ry rz
   end
   begin
      id 24
      name LeftLeg
      direction 0.000000 -1.000000 0.000000
      length 14.556576
      axis 0.0 0.0 0.0 xyz
      dof rx ry rz
   end
   begin
      id 25
      name LeftFoot
      direction 0.000000 -0.258819 0.965926
      length 4.831116
      axis 15.0 0.0 0.0 xyz
      dof rx ry rz
   end
   begin
      id 26
      name LeftToeBase
      direction 0.000000 0.000000 1.000000
      length 2.952750
      axis 0.0 0.0 0.0 xyz
      dof rx ry rz
   end
   begin
      id 27
      name RightUpLeg
      direction 0.000000 -1.000000 0.000000
      length 16.490845
      axis 0.0 0.0 0.0 xyz
      dof rx ry rz
   end
   begin
      id 28
      name RightLeg
      direction 0.000000 -1.000000 0.000000
      length 14.556576
      axis 0.0 0.0 0.0 xyz
      dof rx ry rz
   end
   begin
      id 29
      name RightFoot
      direction 0.000000 -0.258819 0.965926
      length 4.831116
      axis 15.0 0.0 0.0 xyz
      dof rx ry rz
   end
   begin
      id 30
      name RightToeBase
      direction 0.000000 0.000000 1.000000
      length 2.952750
      axis 0.0 0.0 0.0 xyz
      dof rx ry rz
   end
:hierarchy
   begin
      root Spine_dum LeftUpLeg_dum RightUpLeg_dum
      Spine_dum Spine
      LeftUpLeg_dum LeftUpLeg
      RightUpLeg_dum RightUpLeg
      Spine Spine_dum1 Spine_dum2 Spine_dum3
      Spine_dum1 Head
      Spine_dum2 LeftShoulder
      Spine_dum3 RightShoulder
      LeftShoulder LeftArm
      LeftArm LeftForeArm
      LeftForeArm LeftHand
      LeftHand LeftHand_dum1 LeftHand_dum2
      LeftHand_dum1 LeftHandThumb1
      RightShoulder RightArm
      RightArm RightForeArm
      RightForeArm RightHand
      RightHand RightHand_dum1 RightHand_dum2
      RightHand_dum1 RightHandThumb1
      LeftUpLeg LeftLeg
      LeftLeg LeftFoot
      LeftFoot LeftToeBase
      RightUpLeg RightLeg
      RightLeg RightFoot
      RightFoot RightToeBase
   end

# File created by Blade
# Date/Time:  Thu Sep 25 19:04:16 2014
# Frame Rate: 120.000 fps
#------------------------------------------------------
:FULLY-SPECIFIED
:DEGREES
222
root 2.676284 32.150259 -2.693858 12.883736 1.687635 -9.278054
Spine -12.769076 3.358175 6.959402
Head -11.852130 -7.497031 19.023227
LeftShoulder -12.229686 16.700611 28.225407
LeftArm 19.574526 -24.644680 -28.608840
LeftForeArm 10.621567 0.000000 14.604398
LeftHand -25.639443 0.000000 -6.853427
LeftHandThumb1 -26.253704 0.000000 33.147579
RightShoulder -21.292018 13.623126 -35.612381
RightArm -9.702254 6.707243 35.756532
RightForeArm -29.903680 0.000000 15.432984
RightHand -9.071406 -0.000000 10.681143
RightHandThumb1 -24.326973 -0.000000 -32.862282
LeftUpLeg -4.947667 11.727012 25.043713
LeftLeg -2.761139 -0.000000 0.000000
LeftFoot -8.460802 9.344925 -33.026141
LeftToeBase 8.166832 -0.000000 -0.000000
RightUpLeg -12.903714 -8.812866 -5.813475
RightLeg 6.107923 -0.000000 -0.000000
RightFoot 2.941276 10.210928 20.784185
RightToeBase -4.877174 -0.000000 0.000000
223
root 2.779902 32.184621 -2.734973 13.088269 1.545649 -9.292118
Spine -12.892333 3.419324 6.563800
Head -11.830938 -7.700983 19.062046
LeftShoulder -12.261880 16.645791 28.264868
LeftArm 19.659096 -25.148099 -28.864456
LeftForeArm 10.943515 -0.000000 14.751883
LeftHand -25.646295 0.000000 -6.893889
LeftHandThumb1 -26.253704 0.000000 33.147579
RightShoulder -21.321249 13.677422 -35.572261
RightArm -9.884442 6.774716 35.731100
RightForeArm -29.912684 -0.000000 15.566371
RightHand -9.239942 -0.000000 10.603571
RightHandThumb1 -24.326973 -0.000000 -32.862282
LeftUpLeg -5.151603 11.828704 24.782565
LeftLeg -2.767817 -0.000000 0.000000
LeftFoot -8.567008 9.548340 -32.716886
LeftToeBase 8.208210 -0.000000 -0.000000
RightUpLeg -13.344469 -8.635628 -6.353019
RightLeg 6.392591 -0.000000 -0.000000
RightFoot 4.105620 11.851716 20.442541
RightToeBase -5.944413 -0.000000 0.000000
224
root 2.876828 32.216567 -2.766647 13.258507 1.454389 -9.308315
Spine -13.011429 3.462219 6.222382
Head -11.741623 -7.947910 18.987260
LeftShoulder -12.280880 16.550655 28.289010
LeftArm 19.675769 -25.175122 -28.918218
LeftForeArm 10.803447 0.000000 14.835444
LeftHand -25.604767 -0.000000 -6.800564
LeftHandThumb1 -26.253704 0.000000 33.147579
RightShoulder -21.347963 13.637457 -35.552879
RightArm -10.027298 6.967472 35.648640
RightForeArm -29.901999 -0.000000 15.617482
RightHand -9.190189 -0.000000 10.371137
RightHandThumb1 -24.326973 -0.000000 -32.862282
LeftUpLeg -5.329575 11.976032 24.548569
LeftLeg -2.782604 -0.000000 0.000000
LeftFoot -8.562594 9.613731 -32.453433
LeftToeBase 8.165466 -0.000000 -0.000000
RightUpLeg -13.680385 -8.385503 -6.881493
RightLeg 6.593936 -0.000000 -0.000000
RightFoot 5.103510 13.123132 19.343047
RightToeBase -7.390889 -0.000000 0.000000
225
root 2.960058 32.245524 -2.789213 13.357906 1.401203 -9.351064
Spine -13.068898 3.404608 5.937919
Head -11.688857 -8.036562 18.951539
LeftShoulder -12.368912 16.508412 28.258756
LeftArm 19.766346 -25.411120 -29.029058
LeftForeArm 10.981916 -0.000000 14.871311
LeftHand -25.571329 -0.000000 -6.916757
LeftHandThumb1 -26.253704 0.000000 33.147579
RightShoulder -21.310419 13.707314 -35.537115
RightArm -10.251614 7.071192 35.516517
RightForeArm -29.929916 -0.000000 15.783018
RightHand -9.334410 -0.000000 10.284834
RightHandThumb1 -24.326973 -0.000000 -32.862282
LeftUpLeg -5.398190 12.118381 24.393673
LeftLeg -2.867011 -0.000000 0.000000
LeftFoot -8.468231 9.567986 -32.201002
LeftToeBase 8.006525 -0.000000 -0.000000
RightUpLeg -13.914691 -8.158137 -7.370152
RightLeg 6.827734 -0.000000 -0.000000
RightFoot 5.838464 13.912414 18.181317
RightToeBase -7.815812 -0.000000 0.000000
226
root 3.043912 32.270003 -2.813714 13.431878 1.366171 -9.335970
Spine -13.086845 3.385597 5.616981
Head -11.698447 -8.132610 18.893143
LeftShoulder -12.409061 16.550044 28.282239
LeftArm 19.883356 -25.471713 -29.171108
LeftForeArm 10.784992 -0.000000 14.940065
LeftHand -25.750554 0.000000 -6.801977
LeftHandThumb1 -26.253704 0.000000 33.147579
RightShoulder -21.340953 13.712561 -35.557106
RightArm -10.396776 7.275293 35.366178
RightForeArm -29.928268 -0.000000 15.803427
RightHand -9.163414 -0.000000 10.023605
RightHandThumb1 -24.326973 -0.000000 -32.862282
LeftUpLeg -5.507806 12.448628 24.158293
LeftLeg -2.907917 -0.000000 0.000000
LeftFoot -8.310264 9.376697 -32.011222
LeftToeBase 8.172590 -0.000000 -0.000000
RightUpLeg -14.114566 -7.906422 -7.948548
RightLeg 7.120773 -0.000000 -0.000000
RightFoot 6.140363 13.794160 16.967899
RightToeBase -7.620604 -0.000000 0.000000
227
root 3.122456 32.291137 -2.837154 13.496598 1.390403 -9.282694
Spine -13.112092 3.274455 5.285644
Head -11.638533 -8.220020 18.803888
LeftShoulder -12.435698 16.484579 28.297881
LeftArm 19.906981 -25.524070 -29.247681
LeftForeArm 10.875502 -0.000000 14.959123
LeftHand -25.682845 0.000000 -6.954996
LeftHandThumb1 -26.253704 0.000000 33.147579
RightShoulder -21.327384 13.783464 -35.579482
RightArm -10.580499 7.276674 35.175284
RightForeArm -29.881228 -0.000000 15.870302
RightHand -9.202143 -0.000000 9.960089
RightHandThumb1 -24.326973 -0.000000 -32.862282
LeftUpLeg -5.618827 12.709218 23.907365
LeftLeg -2.972661 -0.000000 0.000000
LeftFoot -8.112256 9.167391 -31.732452
LeftToeBase 8.129796 -0.000000 -0.000000
RightUpLeg -14.271149 -7.733645 -8.561605
RightLeg 7.451127 -0.000000 -0.000000
RightFoot 6.042023 12.697372 16.290633
RightToeBase -7.044197 -0.000000 0.000000
228
root 3.196244 32.307376 -2.858087 13.524941 1.488659 -9.225161
Spine -13.092201 3.133437 5.001348
Head -11.625582 -8.268199 18.754662
LeftShoulder -12.439272 16.443664 28.311979
LeftArm 19.939967 -25.307190 -29.235597
LeftForeArm 10.660040 -0.000000 14.897065
LeftHand -25.652956 -0.000000 -6.920646
LeftHandThumb1 -26.253704 0.000000 33.147579
RightShoulder -21.347053 13.727842 -35.618469
RightArm -10.644606 7.577911 34.981433
RightForeArm -30.011914 -0.000000 15.882435
RightHand -9.324526 0.000000 9.695303
RightHandThumb1 -24.326973 -0.000000 -32.862282
LeftUpLeg -5.726257 12.894585 23.673746
LeftLeg -3.033286 -0.000000 0.000000
LeftFoot -7.959136 8.943334 -31.530520
LeftToeBase 8.170224 -0.000000 -0.000000
RightUpLeg -14.336598 -7.637260 -9.150251
RightLeg 7.728318 -0.000000 -0.000000
RightFoot 5.696484 10.545935 15.560874
RightToeBase -6.989678 -0.000000 0.000000
229
root 3.258382 32.319234 -2.870982 13.478275 1.632052 -9.187758
Spine -13.001988 2.901862 4.772763
Head -11.552299 -8.236790 18.682969
LeftShoulder -12.463035 16.285102 28.397491
LeftArm 19.893171 -25.012266 -29.281942
LeftForeArm 10.494837 -0.000000 14.841205
LeftHand -25.654118 0.000000 -6.995787
LeftHandThumb1 -26.253704 0.000000 33.147579
RightShoulder -21.323636 13.783259 -35.625811
RightArm -10.728966 7.588900 34.724362
RightForeArm -29.779922 0.000000 15.908994
RightHand -9.488151 -0.000000 9.464673
RightHandThumb1 -24.326973 -0.000000 -32.862282
LeftUpLeg -5.728295 13.000023 23.515088
LeftLeg -3.189588 -0.000000 0.000000
LeftFoot -7.738065 8.759359 -31.285094
LeftToeBase 8.077729 -0.000000 -0.000000
RightUpLeg -14.271746 -7.824766 -9.661363
RightLeg 7.921848 -0.000000 -0.000000
RightFoot 5.191139 8.180472 14.766626
RightToeBase -6.806697 -0.000000 0.000000
230
root 3.312352 32.326104 -2.874468 13.387255 1.841401 -9.123693
Spine -12.884458 2.648960 4.517255
Head -11.568689 -8.251818 18.679737
LeftShoulder -12.490347 16.455183 28.339264
LeftArm 20.019799 -24.957581 -29.238867
LeftForeArm 10.432235 -0.000000 14.788154
LeftHand -25.651177 -0.000000 -7.145679
LeftHandThumb1 -26.253704 0.000000 33.147579
RightShoulder -21.353705 13.784226 -35.627053
RightArm -10.808493 7.705006 34.409584
RightForeArm -29.794219 -0.000000 15.948850
RightHand -9.485474 0.000000 9.477007
RightHandThumb1 -24.326973 -0.000000 -32.862282
LeftUpLeg -5.729845 13.088673 23.352237
LeftLeg -3.287165 -0.000000 0.000000
LeftFoot -7.562303 8.492518 -31.081895
LeftToeBase 8.059705 -0.000000 -0.000000
RightUpLeg -14.071216 -8.162647 -10.177697
RightLeg 8.001015 -0.000000 -0.000000
RightFoot 4.693598 5.575989 13.670518
RightToeBase -6.646718 -0.000000 0.000000
231
root 3.358777 32.329514 -2.872214 13.248142 2.124835 -9.072586
Spine -12.741155 2.333514 4.322636
Head -11.495006 -8.233930 18.632633
LeftShoulder -12.445933 16.399650 28.371299
LeftArm 19.991729 -24.820916 -29.251273
LeftForeArm 10.424226 -0.000000 14.735382
LeftHand -25.631054 0.000000 -7.337360
LeftHandThumb1 -26.253704 0.000000 33.147579
RightShoulder -21.350528 13.844440 -35.701904
RightArm -10.981624 7.861758 34.118220
RightForeArm -29.947160 -0.000000 16.093446
RightHand -9.566335 0.000000 9.268459
RightHandThumb1 -24.326973 -0.000000 -32.862282
LeftUpLeg -5.701648 13.125995 23.237222
LeftLeg -3.401347 -0.000000 0.000000
LeftFoot -7.349741 8.206580 -30.846876
LeftToeBase 8.040628 -0.000000 -0.000000
RightUpLeg -13.747156 -8.758022 -10.630875
RightLeg 7.972469 -0.000000 -0.000000
RightFoot 4.263595 2.982988 12.608513
RightToeBase -6.662478 -0.000000 0.000000
232
root 3.403059 32.330134 -2.868385 13.134510 2.451783 -8.976814
Spine -12.641200 1.967586 4.082206
Head -11.416736 -8.244321 18.683678
LeftShoulder -12.455214 16.380148 28.428748
LeftArm 20.008668 -24.402668 -29.173979
LeftForeArm 10.170794 -0.000000 14.620714
LeftHand -25.567089 -0.000000 -7.380021
LeftHandThumb1 -26.253704 0.000000 33.147579
RightShoulder -21.389824 13.861358 -35.698912
RightArm -10.961874 7.905789 33.791521
RightForeArm -29.804234 -0.000000 16.038377
RightHand -9.781786 -0.000000 8.942298
RightHandThumb1 -24.326973 -0.000000 -32.862282
LeftUpLeg -5.726458 13.064943 23.089182
LeftLeg -3.486995 -0.000000 0.000000
LeftFoot -7.197477 7.956569 -30.670936
LeftToeBase 8.013587 -0.000000 -0.000000
RightUpLeg -13.397251 -9.615659 -11.096019
RightLeg 7.853007 -0.000000 -0.000000
RightFoot 4.059376 0.490480 11.462131
RightToeBase -6.570842 -0.000000 0.000000
233
root 3.436196 32.326738 -2.862880 12.996317 2.842476 -8.900949
Spine -12.527906 1.574890 3.892992
Head -11.355213 -8.268857 18.674004
LeftShoulder -12.357456 16.121037 28.536299
LeftArm 19.856632 -24.116260 -29.170857
LeftForeArm 10.117083 -0.000000 14.524252
LeftHand -25.423380 -0.000000 -7.342878
LeftHandThumb1 -26.253704 0.000000 33.147579
RightShoulder -21.431560 13.807043 -35.791060
RightArm -11.036612 7.933981 33.599227
RightForeArm -29.402035 -0.000000 16.226427
RightHand -10.075580 0.000000 8.402856
RightHandThumb1 -24.326973 -0.000000 -32.862282
LeftUpLeg -5.760875 12.905278 22.998573
LeftLeg -3.535166 -0.000000 0.000000
LeftFoot -7.064213 7.681848 -30.429251
LeftToeBase 7.794981 -0.000000 -0.000000
RightUpLeg -12.968448 -10.545588 -11.516998
RightLeg 7.669160 -0.000000 -0.000000
RightFoot 4.003375 -1.987127 10.515890
RightToeBase -6.705706 -0.000000 0.000000
234
root 3.460803 32.320468 -2.850993 12.854521 3.199810 -8.826840
Spine -12.417987 1.257720 3.662507
Head -11.297820 -8.332508 18.795160
LeftShoulder -12.339917 16.065594 28.595734
LeftArm 19.949994 -23.974210 -29.183531
LeftForeArm 10.162673 -0.000000 14.409251
LeftHand -25.360541 -0.000000 -7.666577
LeftHandThumb1 -26.253704 0.000000 33.147579
RightShoulder -21.505542 13.761959 -35.830631
RightArm -11.081842 8.067019 33.289115
RightForeArm -29.509077 -0.000000 16.259876
RightHand -10.031442 0.000000 8.060997
RightHandThumb1 -24.326973 -0.000000 -32.862282
LeftUpLeg -5.758523 12.839204 22.916715
LeftLeg -3.634254 -0.000000 0.000000
LeftFoot -6.953786 7.444412 -30.346391
LeftToeBase 8.036784 -0.000000 -0.000000
RightUpLeg -12.548007 -11.704248 -11.885617
RightLeg 7.510291 -0.000000 -0.000000
RightFoot 4.087456 -4.263508 9.295460
RightToeBase -6.591023 -0.000000 0.000000
